<?xml version="1.0" encoding="utf-8"?>
<!-- Generator: Adobe Illustrator 24.0.2, SVG Export Plug-In . SVG Version: 6.00 Build 0)  -->
<svg version="1.1" id="Capa_1" xmlns="http://www.w3.org/2000/svg" xmlns:xlink="http://www.w3.org/1999/xlink" x="0px" y="0px"
	 viewBox="0 0 1920 540" style="enable-background:new 0 0 1920 540;" xml:space="preserve">
<style type="text/css">
	.st0{fill:url(#SVGID_1_);}
</style>
<linearGradient id="SVGID_1_" gradientUnits="userSpaceOnUse" x1="960" y1="-0.2186" x2="960" y2="469.429">
	<stop  offset="0" style="stop-color:#FFA200"/>
	<stop  offset="1" style="stop-color:#FF6600"/>
</linearGradient>
<path class="st0" d="M0,334.9c0,0,173.6,0,187.9,0c26.9,0,35.9,21.5,35.9,21.5l73.3,161.4c0,0,7.2,21.5,35.9,21.5s1205.1,0,1205.1,0
	l95.1-132.3c0,0,12.6-25.1,35.9-25.1c23.3,0,64.6,0,80.7,0c16.1,0,28.7-23.3,28.7-23.3s89.7-154.2,93.3-163.2
	c9-17.9,34.1-17.9,34.1-17.9h14.3V0.9H0V334.9z"/>
</svg>
